<?xml version="1.0" encoding="UTF-8"?>
<svg xmlns="http://www.w3.org/2000/svg" xmlns:xlink="http://www.w3.org/1999/xlink" width="32px" height="32px" viewBox="0 0 32 32" version="1.1">
<g id="surface1">
<path style=" stroke:none;fill-rule:nonzero;fill:rgb(31.37255%,56.078434%,54.901963%);fill-opacity:1;" d="M 24 13.332031 L 8 13.332031 C 6.878906 13.332031 5.933594 14.027344 5.535156 15 L 20.347656 18.625 C 20.761719 18.734375 21.199219 18.625 21.519531 18.359375 L 26.171875 14.464844 C 25.679688 13.785156 24.894531 13.332031 24 13.332031 Z M 24 8 L 8 8 C 6.535156 8 5.332031 9.199219 5.332031 10.667969 L 5.332031 11.398438 C 6.121094 10.945312 7.027344 10.667969 8 10.667969 L 24 10.667969 C 24.972656 10.667969 25.878906 10.945312 26.667969 11.398438 L 26.667969 10.667969 C 26.667969 9.199219 25.464844 8 24 8 Z M 24 8 "/>
<path style=" stroke:none;fill-rule:nonzero;fill:rgb(3.137255%,7.058824%,13.333334%);fill-opacity:1;" d="M 24 5.332031 L 8 5.332031 C 5.054688 5.332031 2.667969 7.71875 2.667969 10.667969 L 2.667969 21.332031 C 2.667969 24.28125 5.054688 26.667969 8 26.667969 L 24 26.667969 C 26.945312 26.667969 29.332031 24.28125 29.332031 21.332031 L 29.332031 10.667969 C 29.332031 7.71875 26.945312 5.332031 24 5.332031 Z M 21.519531 18.359375 C 21.199219 18.625 20.761719 18.734375 20.347656 18.625 L 5.535156 15 C 5.933594 14.027344 6.878906 13.332031 8 13.332031 L 24 13.332031 C 24.894531 13.332031 25.679688 13.785156 26.171875 14.453125 Z M 26.667969 11.398438 C 25.878906 10.945312 24.972656 10.667969 24 10.667969 L 8 10.667969 C 7.027344 10.667969 6.121094 10.945312 5.332031 11.398438 L 5.332031 10.667969 C 5.332031 9.199219 6.535156 8 8 8 L 24 8 C 25.464844 8 26.667969 9.199219 26.667969 10.667969 Z M 26.667969 11.398438 "/>
</g>
</svg>
