<svg width="69" height="54" viewBox="0 0 69 54" fill="none" xmlns="http://www.w3.org/2000/svg">
<path d="M42.2238 12.8728H26.7762C25.6949 12.8728 24.7809 13.5422 24.3948 14.4819L38.6966 17.9834C39.0956 18.0863 39.5204 17.9834 39.8294 17.7259L44.322 13.967C43.8457 13.3105 43.0862 12.8728 42.2238 12.8728ZM42.2238 7.72363H26.7762C25.3602 7.72363 24.2017 8.8822 24.2017 10.2982V11.0062C24.9612 10.5685 25.8365 10.2982 26.7762 10.2982H42.2238C43.1635 10.2982 44.0388 10.5685 44.7983 11.0062V10.2982C44.7983 8.8822 43.6398 7.72363 42.2238 7.72363Z" fill="#508F8C"/>
<path d="M42.2239 5.14917H26.7764C23.9315 5.14917 21.6272 7.45342 21.6272 10.2983V20.5967C21.6272 23.4416 23.9315 25.7458 26.7764 25.7458H42.2239C45.0688 25.7458 47.373 23.4416 47.373 20.5967V10.2983C47.373 7.45342 45.0688 5.14917 42.2239 5.14917ZM39.8295 17.726C39.5206 17.9835 39.0958 18.0865 38.6967 17.9835L24.3949 14.482C24.7811 13.5423 25.695 12.8729 26.7764 12.8729H42.2239C43.0864 12.8729 43.8459 13.3106 44.3222 13.9543L39.8295 17.726ZM44.7985 11.0064C44.039 10.5687 43.1636 10.2983 42.2239 10.2983H26.7764C25.8366 10.2983 24.9613 10.5687 24.2018 11.0064V10.2983C24.2018 8.88232 25.3603 7.72375 26.7764 7.72375H42.2239C43.6399 7.72375 44.7985 8.88232 44.7985 10.2983V11.0064Z" fill="#081222"/>
<path d="M6.50112 48.0152C5.62004 48.0152 4.8305 47.8721 4.13251 47.5861C3.43451 47.3 2.87382 46.8766 2.45044 46.3159C2.03851 45.7553 1.8211 45.0801 1.79822 44.2906H4.92204C4.96782 44.7369 5.12229 45.0801 5.38547 45.3204C5.64865 45.5493 5.99193 45.6637 6.4153 45.6637C6.85012 45.6637 7.1934 45.5665 7.44514 45.3719C7.69688 45.166 7.82274 44.8856 7.82274 44.5309C7.82274 44.2334 7.71976 43.9874 7.51379 43.7928C7.31927 43.5983 7.07325 43.4381 6.77575 43.3123C6.48968 43.1864 6.07775 43.0434 5.53995 42.8832C4.76185 42.6429 4.12678 42.4026 3.63475 42.1623C3.14272 41.922 2.71934 41.5673 2.36462 41.0981C2.0099 40.629 1.83254 40.0168 1.83254 39.2616C1.83254 38.1402 2.23876 37.2648 3.05118 36.6355C3.8636 35.9947 4.92204 35.6743 6.2265 35.6743C7.55384 35.6743 8.62373 35.9947 9.43615 36.6355C10.2486 37.2648 10.6834 38.1459 10.7406 39.2787H7.56529C7.5424 38.8897 7.39937 38.5865 7.13619 38.3691C6.87301 38.1402 6.53545 38.0258 6.12352 38.0258C5.7688 38.0258 5.48273 38.123 5.26532 38.3176C5.04791 38.5006 4.93921 38.7695 4.93921 39.1243C4.93921 39.5133 5.12229 39.8165 5.48845 40.034C5.85462 40.2514 6.42675 40.4859 7.20484 40.7377C7.98294 41.0009 8.61228 41.2526 9.09287 41.4929C9.5849 41.7332 10.0083 42.0822 10.363 42.5399C10.7177 42.9976 10.8951 43.5869 10.8951 44.3078C10.8951 44.9943 10.7177 45.6179 10.363 46.1786C10.0197 46.7393 9.51625 47.1856 8.85258 47.5174C8.18891 47.8492 7.40509 48.0152 6.50112 48.0152ZM15.6363 39.6735C15.9224 39.2273 16.3172 38.8668 16.8206 38.5922C17.3241 38.3176 17.9134 38.1803 18.5885 38.1803C19.3781 38.1803 20.0932 38.3805 20.734 38.781C21.3748 39.1815 21.8783 39.7536 22.2444 40.4974C22.622 41.2411 22.8109 42.1051 22.8109 43.0891C22.8109 44.0732 22.622 44.9428 22.2444 45.698C21.8783 46.4418 21.3748 47.0197 20.734 47.4316C20.0932 47.8321 19.3781 48.0323 18.5885 48.0323C17.9249 48.0323 17.3356 47.895 16.8206 47.6204C16.3172 47.3458 15.9224 46.9911 15.6363 46.5562V52.4606H12.7013V38.3176H15.6363V39.6735ZM19.8243 43.0891C19.8243 42.3568 19.6184 41.7847 19.2064 41.3727C18.8059 40.9494 18.3082 40.7377 17.7132 40.7377C17.1296 40.7377 16.6318 40.9494 16.2199 41.3727C15.8194 41.7961 15.6192 42.374 15.6192 43.1063C15.6192 43.8386 15.8194 44.4165 16.2199 44.8398C16.6318 45.2632 17.1296 45.4749 17.7132 45.4749C18.2967 45.4749 18.7945 45.2632 19.2064 44.8398C19.6184 44.405 19.8243 43.8215 19.8243 43.0891ZM33.3788 42.9518C33.3788 43.2264 33.3617 43.5125 33.3274 43.81H26.6849C26.7307 44.405 26.9195 44.8627 27.2513 45.1831C27.5946 45.4921 28.0123 45.6465 28.5043 45.6465C29.2366 45.6465 29.7458 45.3376 30.0319 44.7197H33.1557C32.9955 45.349 32.7037 45.9154 32.2804 46.4189C31.8684 46.9224 31.3478 47.3172 30.7184 47.6032C30.0891 47.8893 29.3854 48.0323 28.6073 48.0323C27.669 48.0323 26.8337 47.8321 26.1014 47.4316C25.369 47.0311 24.7969 46.459 24.385 45.7152C23.973 44.9714 23.7671 44.1018 23.7671 43.1063C23.7671 42.1108 23.9673 41.2411 24.3678 40.4974C24.7797 39.7536 25.3519 39.1815 26.0842 38.781C26.8165 38.3805 27.6575 38.1803 28.6073 38.1803C29.5341 38.1803 30.358 38.3748 31.0789 38.7638C31.7998 39.1529 32.3605 39.7078 32.7609 40.4287C33.1729 41.1496 33.3788 41.9906 33.3788 42.9518ZM30.3752 42.1794C30.3752 41.676 30.2035 41.2755 29.8602 40.978C29.517 40.6805 29.0879 40.5317 28.573 40.5317C28.0809 40.5317 27.6633 40.6747 27.32 40.9608C26.9882 41.2469 26.7822 41.6531 26.7021 42.1794H30.3752ZM40.7629 38.2146C41.8843 38.2146 42.7768 38.5807 43.4405 39.3131C44.1156 40.034 44.4532 41.0295 44.4532 42.2996V47.895H41.5353V42.6944C41.5353 42.0536 41.3694 41.5558 41.0376 41.2011C40.7057 40.8464 40.2595 40.669 39.6988 40.669C39.1381 40.669 38.6918 40.8464 38.36 41.2011C38.0282 41.5558 37.8622 42.0536 37.8622 42.6944V47.895H34.9272V38.3176H37.8622V39.5877C38.1598 39.1643 38.5602 38.8325 39.0637 38.5922C39.5672 38.3404 40.1336 38.2146 40.7629 38.2146ZM45.9092 43.0891C45.9092 42.1051 46.0922 41.2411 46.4584 40.4974C46.836 39.7536 47.3452 39.1815 47.986 38.781C48.6268 38.3805 49.3419 38.1803 50.1315 38.1803C50.7608 38.1803 51.333 38.3118 51.8479 38.575C52.3742 38.8382 52.7862 39.1929 53.0837 39.6392V35.1937H56.0187V47.895H53.0837V46.5219C52.8091 46.9796 52.4143 47.3458 51.8994 47.6204C51.3959 47.895 50.8066 48.0323 50.1315 48.0323C49.3419 48.0323 48.6268 47.8321 47.986 47.4316C47.3452 47.0197 46.836 46.4418 46.4584 45.698C46.0922 44.9428 45.9092 44.0732 45.9092 43.0891ZM53.0837 43.1063C53.0837 42.374 52.8777 41.7961 52.4658 41.3727C52.0653 40.9494 51.5733 40.7377 50.9897 40.7377C50.4061 40.7377 49.9084 40.9494 49.4964 41.3727C49.0959 41.7847 48.8957 42.3568 48.8957 43.0891C48.8957 43.8215 49.0959 44.405 49.4964 44.8398C49.9084 45.2632 50.4061 45.4749 50.9897 45.4749C51.5733 45.4749 52.0653 45.2632 52.4658 44.8398C52.8777 44.4165 53.0837 43.8386 53.0837 43.1063ZM67.9255 38.3176L61.9181 52.4435H58.76L60.9569 47.5689L57.0607 38.3176H60.339L62.5532 44.3078L64.7502 38.3176H67.9255Z" fill="#FCFCFC"/>
</svg>
